<?xml version="1.0" encoding="UTF-8"?>
<svg version="1.1" xmlns="http://www.w3.org/2000/svg" width="1000" height="1080">
<path d="M0 0 C330 0 660 0 1000 0 C1000 356.4 1000 712.8 1000 1080 C670 1080 340 1080 0 1080 C0 723.6 0 367.2 0 0 Z " fill="#F2F2F4" transform="translate(0,0)"/>
<path d="M0 0 C0.76119141 0.06993164 1.52238281 0.13986328 2.30664062 0.21191406 C7.07078658 0.73592836 11.31973892 1.84932399 15.83227539 3.45385742 C18.7189791 4.459835 21.66453311 5.18042041 24.625 5.9375 C32.2650275 8.09449052 38.96525376 11.44467898 45.9375 15.1875 C47.28714844 15.84492188 47.28714844 15.84492188 48.6640625 16.515625 C61.04874951 22.72667649 72.5751648 32.02267892 81.9375 42.1875 C82.72382812 42.97125 83.51015625 43.755 84.3203125 44.5625 C86.96643621 47.21652259 89.52729694 49.92746242 92.0625 52.6875 C92.91070313 53.6053125 93.75890625 54.523125 94.6328125 55.46875 C99.9375 61.72648305 99.9375 61.72648305 99.9375 65.1875 C100.5975 65.1875 101.2575 65.1875 101.9375 65.1875 C103.35662551 67.68613124 104.7728384 70.18634281 106.1875 72.6875 C106.78111328 73.73164063 106.78111328 73.73164063 107.38671875 74.796875 C115.12462407 88.49677294 121.08911774 102.60099324 124.75 117.9375 C124.94456787 118.75114014 125.13913574 119.56478027 125.33959961 120.40307617 C128.20467604 133.0847893 129.31523899 145.59680113 129.25 158.5625 C129.24850952 159.29984375 129.24701904 160.0371875 129.2454834 160.796875 C129.19747116 174.09698172 128.21641338 187.06793987 125.9375 200.1875 C125.8142334 200.94208496 125.6909668 201.69666992 125.56396484 202.47412109 C122.06542235 223.21715281 114.12211889 244.31436792 104.9375 263.1875 C104.23947266 264.62609375 104.23947266 264.62609375 103.52734375 266.09375 C99.787375 273.34449722 95.04871151 279.84897477 90.234375 286.40673828 C88.99241883 288.11208999 87.77313991 289.83090971 86.5625 291.55859375 C77.10891059 305.03440499 67.1559223 318.12883149 55.9375 330.1875 C54.82835406 331.4539899 53.72407346 332.72475927 52.625 334 C41.55182665 346.6731961 30.0282329 359.42740482 17.15625 370.30859375 C15.32145677 371.86235351 13.51691703 373.43959233 11.71875 375.03515625 C2.45951817 383.21744368 -7.15682839 390.80548395 -17.0625 398.1875 C-18.01511719 398.90421875 -18.96773437 399.6209375 -19.94921875 400.359375 C-34.68611967 411.28228472 -50.25018949 420.91821453 -66.0625 430.1875 C-66.71734375 430.57421875 -67.3721875 430.9609375 -68.046875 431.359375 C-77.17979952 436.74545869 -86.50799804 441.60546131 -96.0625 446.1875 C-96.91537598 446.59871094 -97.76825195 447.00992187 -98.64697266 447.43359375 C-115.10307148 455.31801572 -131.9161321 461.96377726 -149.0625 468.1875 C-150.16883789 468.59242676 -151.27517578 468.99735352 -152.41503906 469.41455078 C-173.93577611 477.2511522 -195.8817364 483.27530369 -218.125 488.6875 C-219.17179932 488.94297607 -220.21859863 489.19845215 -221.29711914 489.46166992 C-222.26254639 489.69088135 -223.22797363 489.92009277 -224.22265625 490.15625 C-225.48541382 490.45692383 -225.48541382 490.45692383 -226.77368164 490.76367188 C-229.0625 491.1875 -229.0625 491.1875 -233.0625 491.1875 C-231.73391412 484.76600157 -230.01908994 478.56034046 -228.0625 472.30078125 C-225.06372091 461.03682123 -224.65899885 449.45896873 -224.6875 437.875 C-224.68704681 437.15404144 -224.68659363 436.43308289 -224.68612671 435.6902771 C-224.69497532 414.56778453 -224.69497532 414.56778453 -233.875 396.125 C-247.49625319 384.06046146 -262.6199525 373.76257246 -278.0625 364.1875 C-278.94107666 363.64246826 -278.94107666 363.64246826 -279.83740234 363.08642578 C-288.40516019 357.80546883 -297.15044612 352.82805573 -305.875 347.8125 C-359.30433675 317.07573471 -410.49860612 281.59400939 -428.0625 219.1875 C-437.81900555 182.4340775 -429.28810378 142.93564571 -410.58349609 110.63330078 C-404.5955756 100.74047276 -397.74410407 91.9326256 -389.59667969 83.74072266 C-388.02086771 82.14535095 -386.48205849 80.51969089 -384.9453125 78.88671875 C-359.97856358 52.6871862 -322.46356808 33.60480133 -285.95556641 32.05566406 C-278.3189166 31.87492816 -270.6973975 31.98538402 -263.0625 32.1875 C-261.804375 32.20683594 -260.54625 32.22617187 -259.25 32.24609375 C-221.53716659 33.86656706 -186.90464118 54.71273505 -160.375 80.0859375 C-157.71855802 82.6129084 -154.97141027 84.9507243 -152.0625 87.1875 C-151.52882813 86.26710938 -150.99515625 85.34671875 -150.4453125 84.3984375 C-142.20557939 70.33580978 -133.0061129 57.28442105 -122.0625 45.1875 C-121.57442871 44.64738281 -121.08635742 44.10726562 -120.58349609 43.55078125 C-89.17179208 9.32411703 -45.39604323 -4.37530708 0 0 Z " fill="#F80161" transform="translate(651.0625,225.8125)"/>
<path d="M0 0 C330 0 660 0 1000 0 C1000 26.4 1000 52.8 1000 80 C670 80 340 80 0 80 C0 53.6 0 27.2 0 0 Z " fill="#000000" transform="translate(0,1000)"/>
<path d="M0 0 C1.67835938 -0.00483398 1.67835938 -0.00483398 3.390625 -0.00976562 C12.84185534 0.05153363 20.21732882 1.67552454 28.625 6 C29.32189941 6.35594238 30.01879883 6.71188477 30.73681641 7.07861328 C50.68145706 17.46461735 65.43770433 34.29830459 72.265625 55.89453125 C79.53787802 80.58471711 77.57290372 105.27216543 68.75 129.3125 C68.50797852 129.9739502 68.26595703 130.63540039 68.01660156 131.31689453 C61.32232498 149.23291533 52.44732002 166.17242313 40.75 181.3125 C40.13511719 182.1375 39.52023437 182.9625 38.88671875 183.8125 C35.15912349 188.74835027 31.10799022 193.34125394 26.9375 197.90625 C25.00371827 200.0334099 23.12068183 202.19253786 21.25 204.375 C14.95840181 211.58200393 8.0835598 218.17791902 0.75 224.3125 C0.21020508 224.76608887 -0.32958984 225.21967773 -0.88574219 225.68701172 C-22.58610627 243.85192323 -46.23559057 259.10316927 -71.25 272.3125 C-72.23226562 272.83424805 -73.21453125 273.35599609 -74.2265625 273.89355469 C-107.16920412 291.25657109 -142.33093507 304.10784178 -178.1875 314.0625 C-179.09330811 314.31507568 -179.99911621 314.56765137 -180.93237305 314.82788086 C-186.99595585 316.43952207 -186.99595585 316.43952207 -189.25 315.3125 C-188.81429687 314.75304687 -188.37859375 314.19359375 -187.9296875 313.6171875 C-177.28535801 299.28651013 -172.99733243 284.02879844 -174.25 266.3125 C-177.04847949 247.42864258 -188.31315528 233.44723879 -203.25 222.3125 C-207.28506292 219.34603973 -211.36638162 216.44782098 -215.46484375 213.56982422 C-218.34291191 211.54273846 -221.20146353 209.488516 -224.0625 207.4375 C-227.83240804 204.73686139 -231.61336019 202.05393458 -235.41796875 199.40234375 C-261.9184008 180.91025105 -289.12767809 161.09557585 -296.80566406 127.91088867 C-299.28613028 113.4056129 -298.30870912 97.74762726 -292.25 84.3125 C-291.9494873 83.62784668 -291.64897461 82.94319336 -291.33935547 82.23779297 C-281.51829127 60.45117602 -263.55905325 42.64849685 -241.31689453 33.51904297 C-214.11307239 23.27292201 -186.67531337 26.10041215 -160.25 37.3125 C-141.26819922 45.90954471 -124.80388237 57.56379156 -109.25 71.3125 C-108.32574219 72.12589844 -107.40148437 72.93929687 -106.44921875 73.77734375 C-104.37442062 75.61336262 -102.30744062 77.45708198 -100.25 79.3125 C-97.79239589 76.26222609 -95.87645252 73.01691729 -93.93920898 69.62744141 C-79.36466266 44.12838142 -60.58551893 19.75658098 -33.5625 6.8125 C-32.58482666 6.34130737 -32.58482666 6.34130737 -31.58740234 5.8605957 C-21.3041875 1.21496328 -11.20686151 -0.1636516 0 0 Z " fill="#F1F2F4" transform="translate(611.25,308.6875)"/>
<path d="M0 0 C5.67673992 3.89234154 9.25048849 8.9584154 11.26171875 15.55078125 C12.41139056 23.95332087 10.26153931 31.19577859 5.48046875 38.13671875 C1.260786 42.72785245 -4.89481906 45.72193027 -10.984375 47.03515625 C-18.13065239 47.32273281 -24.62184312 44.78292868 -30.05078125 40.30078125 C-36.14759032 34.39868066 -38.14584855 30.23676562 -38.36328125 21.73828125 C-38.29462 14.43925514 -36.88484716 8.88983683 -31.73828125 3.55078125 C-21.81430359 -4.04823938 -11.24330274 -6.26589085 0 0 Z " fill="#F8035A" transform="translate(527.73828125,432.44921875)"/>
<path d="M0 0 C4.5996291 2.58455349 7.72330373 5.60370809 10.6875 9.9375 C11.30625 10.80375 11.925 11.67 12.5625 12.5625 C14.97583961 19.80251884 14.81821247 27.40894902 11.625 34.375 C7.93161298 40.73010169 3.7493451 44.48296336 -3.25 46.8125 C-11.33265025 48.83621032 -16.54684868 48.54194504 -23.98046875 44.48828125 C-29.43327975 40.8622076 -33.8810065 35.43245809 -35.3125 28.9375 C-36.10647075 21.28205359 -36.22047777 14.19276579 -31.3125 7.9375 C-22.72976705 -1.27823278 -11.96888071 -5.4617031 0 0 Z " fill="#F90364" transform="translate(597.3125,431.0625)"/>
<path d="M0 0 C8.05303633 3.07874702 12.39762089 6.58972036 16.29296875 14.24609375 C16.70546875 15.02984375 17.11796875 15.81359375 17.54296875 16.62109375 C19.49152886 23.44105415 18.47285149 29.47493234 15.60546875 35.88671875 C11.68457925 42.9349844 6.5321859 46.1941255 -1.078125 48.5859375 C-8.44423644 50.43567425 -14.12482624 48.68272119 -20.70703125 45.24609375 C-26.14204687 40.75629824 -30.05325083 35.13684551 -31.70703125 28.24609375 C-32.36640066 20.06991312 -30.23031603 13.43413029 -25.3046875 6.8515625 C-22.29069231 3.82282895 -18.53086398 2.06410459 -14.70703125 0.24609375 C-10.26580372 -1.97452002 -4.65738068 -1.29707716 0 0 Z " fill="#F70350" transform="translate(448.70703125,429.75390625)"/>
<path d="M0 0 C1.65 0 3.3 0 5 0 C5.33 4.29 5.66 8.58 6 13 C6.9075 11.989375 7.815 10.97875 8.75 9.9375 C10.296875 8.21484375 10.296875 8.21484375 12 7 C14.203125 7.31640625 14.203125 7.31640625 16 8 C15.154375 8.721875 14.30875 9.44375 13.4375 10.1875 C10.78069093 12.67228979 10.78069093 12.67228979 10.875 15.3125 C12.48458201 19.15761259 14.67860487 22.54788843 17 26 C14.8125 26.4375 14.8125 26.4375 12 26 C10.47721739 24.31282609 9.31032522 22.55899343 8.11328125 20.62890625 C7.083831 18.83937637 7.083831 18.83937637 5 18 C5 20.64 5 23.28 5 26 C3.35 26 1.7 26 0 26 C-0.495 23.525 -0.495 23.525 -1 21 C-2.299375 22.2375 -2.299375 22.2375 -3.625 23.5 C-5.94169652 25.40338916 -6.97114948 25.99398948 -10 26.625 C-14.25061619 25.73945496 -16.14809128 24.25932425 -19 21 C-19.75166097 18.17557696 -19.68698279 15.83380401 -19 13 C-17.20636089 10.1899654 -15.98119065 8.49059532 -13 7 C-9.12785818 6.56976202 -7.47503629 6.68330914 -4.1875 8.875 C-2 11 -2 11 -1 13 C-0.67 8.71 -0.34 4.42 0 0 Z " fill="#0B0B0B" transform="translate(202,1026)"/>
<path d="M0 0 C1.8125 1.375 1.8125 1.375 3 3 C3 3.66 3 4.32 3 5 C4.98 4.67 6.96 4.34 9 4 C8.01 3.67 7.02 3.34 6 3 C6 2.01 6 1.02 6 0 C9.63 0 13.26 0 17 0 C16.67 1.32 16.34 2.64 16 4 C16 4.99 16 5.98 16 7 C16.66 7.66 17.32 8.32 18 9 C18.375 11.4375 18.375 11.4375 18 14 C16.4375 15.875 16.4375 15.875 14 17 C7.67272727 16.67272727 7.67272727 16.67272727 5 14 C4.34 14.66 3.68 15.32 3 16 C1.16015625 16.484375 1.16015625 16.484375 -0.9375 16.75 C-1.62714844 16.84796875 -2.31679688 16.9459375 -3.02734375 17.046875 C-5 17 -5 17 -8 15 C-9.2356238 11.2931286 -9.55819989 7.85312983 -9 4 C-6.50225714 0.2996402 -4.42992476 -0.7951147 0 0 Z " fill="#111111" transform="translate(903,1034)"/>
<path d="M0 0 C4.58961664 0.88571549 6.52623798 2.13285178 9.5625 5.6875 C10.30890732 8.51359184 10.24967509 10.85290277 9.5625 13.6875 C7.76886089 16.4975346 6.54369065 18.19690468 3.5625 19.6875 C-0.03454193 20.08717133 -2.00529887 19.9084028 -5.25 18.25 C-7.91810109 15.12451015 -8.46774067 12.99865868 -8.6953125 8.94921875 C-8.09582362 3.69006627 -5.19772697 1.03954539 0 0 Z " fill="#ECECEC" transform="translate(171.4375,1032.3125)"/>
<path d="M0 0 C5.54361702 3.28510638 5.54361702 3.28510638 6.515625 6.9375 C6.71870236 10.76695879 6.22165721 12.65273704 4.125 15.9375 C1.36482531 18.61649308 0.50885848 18.95288347 -3.375 19.3125 C-7 19 -7 19 -9.375 17.5625 C-11.72393731 13.85840655 -12.35037821 10.36804841 -12 6 C-8.82223121 0.74024476 -6.0907066 -0.70277384 0 0 Z " fill="#ECECEC" transform="translate(110,1033)"/>
<path d="M0 0 C0.33 0.99 0.66 1.98 1 3 C1.680625 2.319375 2.36125 1.63875 3.0625 0.9375 C6 -1 6 -1 9.6875 -0.9375 C13 0 13 0 15 3 C14.8125 6.5625 14.8125 6.5625 14 10 C10.76746204 12.15502531 9.74849077 12.46856135 6 12 C4.1875 10.5 4.1875 10.5 3 9 C2.278125 9.495 1.55625 9.99 0.8125 10.5 C-2.198557 12.10589707 -3.65585985 12.52802213 -7 12 C-8.8125 10.9375 -8.8125 10.9375 -10 9 C-10.36841966 5.56141649 -10.58367385 3.09868019 -8.9375 0 C-5.86664787 -1.58495594 -3.27813225 -0.68036707 0 0 Z " fill="#151515" transform="translate(820,1039)"/>
<path d="M0 0 C3.38031589 1.18767855 3.93216817 1.89825225 6 5 C6 5.99 6 6.98 6 8 C4.68 8 3.36 8 2 8 C1.34 7.01 0.68 6.02 0 5 C-3.58357241 4.74984127 -3.58357241 4.74984127 -7 5 C-6.67 6.65 -6.34 8.3 -6 10 C-4.7625 10.268125 -3.525 10.53625 -2.25 10.8125 C3.72807018 12.3494152 3.72807018 12.3494152 6 15 C6.51073645 18.42923043 6.4061374 20.28442457 4.6875 23.3125 C2.13933842 25.86066158 0.11291802 25.99384084 -3.4375 26.1875 C-8.65217391 25.91304348 -8.65217391 25.91304348 -11 24 C-12.25 20.875 -12.25 20.875 -13 18 C-11.68 18 -10.36 18 -9 18 C-8.34 18.99 -7.68 19.98 -7 21 C-5.02252878 21.36297936 -5.02252878 21.36297936 -2.875 21.1875 C-1.59625 21.125625 -0.3175 21.06375 1 21 C0.67 19.35 0.34 17.7 0 16 C-0.69867188 15.80664062 -1.39734375 15.61328125 -2.1171875 15.4140625 C-3.02726563 15.15367188 -3.93734375 14.89328125 -4.875 14.625 C-5.77992188 14.36976562 -6.68484375 14.11453125 -7.6171875 13.8515625 C-10 13 -10 13 -12 11 C-12.4375 7.625 -12.4375 7.625 -12 4 C-8.42634327 -0.22341249 -5.36372734 -0.58513389 0 0 Z " fill="#E8E8E8" transform="translate(143,1026)"/>
<path d="M0 0 C0.33 1.32 0.66 2.64 1 4 C1.66 2.68 2.32 1.36 3 0 C6.3 0 9.6 0 13 0 C13 0.66 13 1.32 13 2 C10.36 2 7.72 2 5 2 C5.33 2.99 5.66 3.98 6 5 C6.763125 4.938125 7.52625 4.87625 8.3125 4.8125 C11 5 11 5 12.875 6.0625 C14.68060316 9.17214989 13.79952488 11.61739473 13 15 C11 17 11 17 8.125 17.375 C4.37431801 16.92491816 3.33511483 15.87398748 1 13 C0.67 14.32 0.34 15.64 0 17 C-0.99 17 -1.98 17 -3 17 C-3 12.71 -3 8.42 -3 4 C-4.32 4.33 -5.64 4.66 -7 5 C-5.22678182 1.07358831 -4.52021524 0 0 0 Z " fill="#101010" transform="translate(929,1034)"/>
<path d="M0 0 C4.37384952 0.85914901 5.88134295 2.11660402 8.5 5.6875 C8.5 7.3375 8.5 8.9875 8.5 10.6875 C4.21 10.6875 -0.08 10.6875 -4.5 10.6875 C-4.17 12.3375 -3.84 13.9875 -3.5 15.6875 C-0.58347826 15.85431109 -0.58347826 15.85431109 2.5 15.6875 C3.16 15.0275 3.82 14.3675 4.5 13.6875 C6.625 14.0625 6.625 14.0625 8.5 14.6875 C7 17.1875 7 17.1875 4.5 19.6875 C-0.40852174 20.54454348 -0.40852174 20.54454348 -3.5 19.6875 C-7.0341186 16.6687737 -8.30734394 14.76637394 -9.125 10.1875 C-8.11353612 4.52330229 -5.98945084 1.17649927 0 0 Z " fill="#ECECEC" transform="translate(56.5,1032.3125)"/>
<path d="M0 0 C1.32 0 2.64 0 4 0 C6.31 6.6 8.62 13.2 11 20 C13.31 13.4 15.62 6.8 18 0 C19.32 0 20.64 0 22 0 C20.36231563 9.00726401 17.13020303 17.42639358 14 26 C12.35 26 10.7 26 9 26 C0 5.19672131 0 5.19672131 0 0 Z " fill="#ECECEC" transform="translate(27,1026)"/>
<path d="M0 0 C1.32 0 2.64 0 4 0 C4.33 4.29 4.66 8.58 5 13 C5.9075 11.989375 6.815 10.97875 7.75 9.9375 C9.296875 8.21484375 9.296875 8.21484375 11 7 C13.203125 7.31640625 13.203125 7.31640625 15 8 C14.154375 8.721875 13.30875 9.44375 12.4375 10.1875 C9.78069093 12.67228979 9.78069093 12.67228979 9.875 15.3125 C11.48458201 19.15761259 13.67860487 22.54788843 16 26 C13.8125 26.4375 13.8125 26.4375 11 26 C9.47721739 24.31282609 8.31032522 22.55899343 7.11328125 20.62890625 C6.083831 18.83937637 6.083831 18.83937637 4 18 C4 20.64 4 23.28 4 26 C2.68 26 1.36 26 0 26 C0 17.42 0 8.84 0 0 Z " fill="#E8E8E8" transform="translate(203,1026)"/>
<path d="M0 0 C2.5 0.5625 2.5 0.5625 4.8125 2.625 C6.94392985 6.33526678 7.17796661 8.34404109 6.5 12.5625 C4.375 15.5625 4.375 15.5625 1.5 17.5625 C-1.6875 17.625 -1.6875 17.625 -4.5 16.5625 C-6.99175277 13.73096276 -6.91806466 10.10134397 -6.81640625 6.46875 C-6.5 4.5625 -6.5 4.5625 -4.8125 2.0625 C-2.5 0.5625 -2.5 0.5625 0 0 Z " fill="#E7E7E7" transform="translate(900.5,1033.4375)"/>
<path d="M0 0 C0.33 0.99 0.66 1.98 1 3 C-1.31 2.67 -3.62 2.34 -6 2 C-6.99 3.485 -6.99 3.485 -8 5 C-7.071875 4.79375 -6.14375 4.5875 -5.1875 4.375 C-2 4 -2 4 1 6 C1.3734761 9.42353094 1.57873868 11.91060954 -0.0625 15 C-3.26330051 16.65202607 -5.62641327 15.92006911 -9 15 C-11.53722413 12.24214768 -11.42329643 8.51991693 -11.30859375 4.91015625 C-11 3 -11 3 -9.4375 0.4375 C-6.01492921 -1.58093918 -3.77265569 -0.87061285 0 0 Z " fill="#E6E6E6" transform="translate(891,1035)"/>
<path d="M0 0 C0.33 0.99 0.66 1.98 1 3 C-1.31 2.67 -3.62 2.34 -6 2 C-6.99 3.485 -6.99 3.485 -8 5 C-6.6078125 4.6596875 -6.6078125 4.6596875 -5.1875 4.3125 C-2 4 -2 4 -0.125 5.0625 C1.49933741 7.85996999 1.39704314 9.82365485 1 13 C-0.0625 14.9375 -0.0625 14.9375 -2 16 C-5.5625 15.9375 -5.5625 15.9375 -9 15 C-11.53722413 12.24214768 -11.42329643 8.51991693 -11.30859375 4.91015625 C-11 3 -11 3 -9.4375 0.4375 C-6.01492921 -1.58093918 -3.77265569 -0.87061285 0 0 Z " fill="#E7E7E7" transform="translate(956,1035)"/>
<path d="M0 0 C3.9375 0.625 3.9375 0.625 6.4375 2.4375 C7.9375 4.625 7.9375 4.625 7.9375 7.625 C6.6175 7.295 5.2975 6.965 3.9375 6.625 C3.9375 5.965 3.9375 5.305 3.9375 4.625 C1.02097826 4.45818891 1.02097826 4.45818891 -2.0625 4.625 C-4.44244368 6.56832332 -4.44244368 6.56832332 -4.3125 10.125 C-4.44244368 13.68167668 -4.44244368 13.68167668 -2.0625 15.625 C1.02097826 15.79181109 1.02097826 15.79181109 3.9375 15.625 C4.2675 14.635 4.5975 13.645 4.9375 12.625 C5.9275 12.625 6.9175 12.625 7.9375 12.625 C7.57552104 15.24934747 7.11093943 16.44513689 5.25 18.375 C2.1390993 20.05656795 0.43661355 20.18485817 -3.0625 19.625 C-6.4375 17.625 -6.4375 17.625 -9.0625 14.625 C-9.87944628 9.94612585 -9.78797504 7.05973018 -7.0625 3.125 C-3.55147796 0.1991483 -3.55147796 0.1991483 0 0 Z " fill="#E9E9E9" transform="translate(76.0625,1032.375)"/>
<path d="M0 0 C2.69469307 4.04203961 2.53918165 7.25862489 2 12 C0.875 14.5625 0.875 14.5625 -1 16 C-4.30918071 16.48258885 -6.13493913 16.63437797 -8.875 14.625 C-10 13 -10 13 -10 11 C-9.01 11 -8.02 11 -7 11 C-6.67 11.66 -6.34 12.32 -6 13 C-4.68 12.67 -3.36 12.34 -2 12 C-2 11.34 -2 10.68 -2 10 C-3.134375 9.855625 -4.26875 9.71125 -5.4375 9.5625 C-9 9 -9 9 -10 8 C-10.26587831 4.94239943 -10.43409881 2.79159195 -8.9375 0.0625 C-5.78433176 -1.66665678 -3.37491745 -0.8590699 0 0 Z " fill="#E0E0E0" transform="translate(969,1035)"/>
<path d="M0 0 C2.875 1.8125 2.875 1.8125 5 4 C5 4.99 5 5.98 5 7 C3.68 6.67 2.36 6.34 1 6 C1 5.34 1 4.68 1 4 C-1.91652174 3.83318891 -1.91652174 3.83318891 -5 4 C-7.37994368 5.94332332 -7.37994368 5.94332332 -7.25 9.5 C-7.37994368 13.05667668 -7.37994368 13.05667668 -5 15 C-1.91652174 15.16681109 -1.91652174 15.16681109 1 15 C1.33 14.01 1.66 13.02 2 12 C2.99 12 3.98 12 5 12 C4.63802104 14.62434747 4.17343943 15.82013689 2.3125 17.75 C-0.7984007 19.43156795 -2.50088645 19.55985817 -6 19 C-11.54361702 15.71489362 -11.54361702 15.71489362 -12.515625 12.0625 C-12.71870236 8.23304121 -12.22165721 6.34726296 -10.125 3.0625 C-6.77678373 -0.18723932 -4.62344486 -0.45327891 0 0 Z " fill="#EBEBEB" transform="translate(195,1033)"/>
<path d="M0 0 C2 3 2 3 1.8125 6.5625 C1 10 1 10 -2 12 C-4.79523674 12.34940459 -6.3648354 12.37233787 -8.8125 10.9375 C-10.67036623 7.90624457 -10.37133265 5.46577141 -10 2 C-7.71139092 -2.30797003 -4.19123206 -1.06685907 0 0 Z " fill="#DFDFDF" transform="translate(833,1039)"/>
<path d="M0 0 C2 3 2 3 1.8125 6.5625 C1 10 1 10 -2 12 C-4.79523674 12.34940459 -6.3648354 12.37233787 -8.8125 10.9375 C-10.67036623 7.90624457 -10.37133265 5.46577141 -10 2 C-7.71139092 -2.30797003 -4.19123206 -1.06685907 0 0 Z " fill="#E1E1E1" transform="translate(776,1039)"/>
<path d="M0 0 C2 3 2 3 1.8125 6.5625 C1 10 1 10 -2 12 C-4.79523674 12.34940459 -6.3648354 12.37233787 -8.8125 10.9375 C-10.67036623 7.90624457 -10.37133265 5.46577141 -10 2 C-7.71139092 -2.30797003 -4.19123206 -1.06685907 0 0 Z " fill="#DFDFDF" transform="translate(733,1039)"/>
<path d="M0 0 C2.62527189 -0.05382106 5.24944713 -0.09358313 7.875 -0.125 C8.62136719 -0.14175781 9.36773438 -0.15851563 10.13671875 -0.17578125 C12.09194461 -0.1933959 14.04742021 -0.10320189 16 0 C18 2 18 2 18.1953125 4.6015625 C18.17210937 5.59929687 18.14890625 6.59703125 18.125 7.625 C18.10695313 8.62789062 18.08890625 9.63078125 18.0703125 10.6640625 C18.04710937 11.43492188 18.02390625 12.20578125 18 13 C17.34 13 16.68 13 16 13 C15.67 10.03 15.34 7.06 15 4 C13.68 4 12.36 4 11 4 C10.67 6.97 10.34 9.94 10 13 C9.34 13 8.68 13 8 13 C7.67 9.7 7.34 6.4 7 3 C6.01 3 5.02 3 4 3 C3.67 6.3 3.34 9.6 3 13 C2.01 13 1.02 13 0 13 C0 8.71 0 4.42 0 0 Z " fill="#EDEDED" transform="translate(836,1038)"/>
<path d="M0 0 C0.99 0 1.98 0 3 0 C3 3.63 3 7.26 3 11 C3.66 11 4.32 11 5 11 C5 11.66 5 12.32 5 13 C4.34 13 3.68 13 3 13 C3 14.32 3 15.64 3 17 C2.01 17 1.02 17 0 17 C0 15.68 0 14.36 0 13 C-2.64 13 -5.28 13 -8 13 C-6.46462766 8.08680853 -3.58639157 3.67764836 0 0 Z " fill="#E8E8E8" transform="translate(873,1034)"/>
<path d="M0 0 C1.52491998 3.04983996 1.23562548 5.6423369 1 9 C-0.1875 11 -0.1875 11 -2 12 C-5.34192692 11.75546876 -6.60543557 11.39456443 -9 9 C-9.54782609 2.97391304 -9.54782609 2.97391304 -7.875 0 C-5.01598528 -1.52480785 -3.03270286 -0.8570682 0 0 Z " fill="#080808" transform="translate(176,1037)"/>
<path d="M0 0 C1.52491998 3.04983996 1.23562548 5.6423369 1 9 C-0.1875 11 -0.1875 11 -2 12 C-5.34192692 11.75546876 -6.60543557 11.39456443 -9 9 C-9.54782609 2.97391304 -9.54782609 2.97391304 -7.875 0 C-5.01598528 -1.52480785 -3.03270286 -0.8570682 0 0 Z " fill="#080808" transform="translate(111,1037)"/>
<path d="M0 0 C0.99 0 1.98 0 3 0 C3 1.65 3 3.3 3 5 C4.32 5 5.64 5 7 5 C7 5.99 7 6.98 7 8 C5.68 8 4.36 8 3 8 C3 12.29 3 16.58 3 21 C4.32 21 5.64 21 7 21 C7 21.99 7 22.98 7 24 C5.00045254 24.04254356 2.99958364 24.04080783 1 24 C0 23 0 23 -0.09765625 19.62109375 C-0.09098369 18.22652923 -0.07902532 16.83198257 -0.0625 15.4375 C-0.05798828 14.72658203 -0.05347656 14.01566406 -0.04882812 13.28320312 C-0.03700864 11.52209987 -0.01907263 9.76103964 0 8 C-1.32 8 -2.64 8 -4 8 C-4 7.01 -4 6.02 -4 5 C-2.68 5 -1.36 5 0 5 C0 3.35 0 1.7 0 0 Z " fill="#F6F6F6" transform="translate(154,1028)"/>
<path d="M0 0 C0.99 0 1.98 0 3 0 C3 1.32 3 2.64 3 4 C4.32 4 5.64 4 7 4 C7 4.99 7 5.98 7 7 C5.68 7 4.36 7 3 7 C3 11.29 3 15.58 3 20 C4.32 20 5.64 20 7 20 C7 20.99 7 21.98 7 23 C5.00045254 23.04254356 2.99958364 23.04080783 1 23 C0 22 0 22 -0.09765625 18.62109375 C-0.09098369 17.22652923 -0.07902532 15.83198257 -0.0625 14.4375 C-0.05798828 13.72658203 -0.05347656 13.01566406 -0.04882812 12.28320312 C-0.03700864 10.52209987 -0.01907263 8.76103964 0 7 C-1.32 7 -2.64 7 -4 7 C-4 6.01 -4 5.02 -4 4 C-2.68 4 -1.36 4 0 4 C0 2.68 0 1.36 0 0 Z " fill="#FAFAFA" transform="translate(89,1029)"/>
<path d="M0 0 C0.99 0.66 1.98 1.32 3 2 C3 2.99 3 3.98 3 5 C2.01 5 1.02 5 0 5 C-0.33 4.34 -0.66 3.68 -1 3 C-2.32 3 -3.64 3 -5 3 C-5 3.99 -5 4.98 -5 6 C-2.36 6.99 0.28 7.98 3 9 C3.1875 11.875 3.1875 11.875 3 15 C-0.46923881 17.31282587 -1.92205575 17.42478586 -6 17 C-7.875 15.6875 -7.875 15.6875 -9 14 C-9 13.01 -9 12.02 -9 11 C-6 12 -6 12 -5 14 C-3.35 13.67 -1.7 13.34 0 13 C0 12.34 0 11.68 0 11 C-0.56589844 10.84144531 -1.13179687 10.68289063 -1.71484375 10.51953125 C-3.92756716 9.81565965 -5.94841871 9.09044132 -8 8 C-9.1875 5.5 -9.1875 5.5 -9 3 C-6.82655578 -0.70764013 -3.98186313 -0.41477741 0 0 Z " fill="#E1E1E1" transform="translate(753,1034)"/>
<path d="M0 0 C2.475 0.495 2.475 0.495 5 1 C7.72502965 0.62277985 7.72502965 0.62277985 10 0 C10 1.32 10 2.64 10 4 C8.35 4.66 6.7 5.32 5 6 C4.67 10.29 4.34 14.58 4 19 C2.68 19 1.36 19 0 19 C0 12.73 0 6.46 0 0 Z " fill="#E6E6E6" transform="translate(119,1033)"/>
<path d="M0 0 C3.3 0 6.6 0 10 0 C10 0.66 10 1.32 10 2 C7.36 2 4.72 2 2 2 C2.33 2.99 2.66 3.98 3 5 C3.763125 4.938125 4.52625 4.87625 5.3125 4.8125 C8 5 8 5 9.875 6.0625 C11.68060316 9.17214989 10.79952488 11.61739473 10 15 C8 17 8 17 5.0625 17.3125 C2 17 2 17 0.125 15.625 C-1 14 -1 14 -1 12 C-0.443125 12.33 0.11375 12.66 0.6875 13 C3.30284522 14.1309601 5.1806646 14.15662974 8 14 C7.67 12.02 7.34 10.04 7 8 C4.36 8.33 1.72 8.66 -1 9 C-0.67 6.03 -0.34 3.06 0 0 Z " fill="#E5E5E5" transform="translate(932,1034)"/>
<path d="M0 0 C1.8125 1.25 1.8125 1.25 3 3 C3 4.32 3 5.64 3 7 C0.03 7 -2.94 7 -6 7 C-5.01 8.485 -5.01 8.485 -4 10 C-0.535 9.505 -0.535 9.505 3 9 C2.67 9.99 2.34 10.98 2 12 C-4.37426409 13.32296047 -4.37426409 13.32296047 -6.9375 12 C-8.58367385 8.90131981 -8.36841966 6.43858351 -8 3 C-5.95177941 -0.34183359 -3.7548828 -0.56323242 0 0 Z " fill="#F9F9F9" transform="translate(697,1038)"/>
<path d="M0 0 C0.99 0 1.98 0 3 0 C3.33 2.64 3.66 5.28 4 8 C5.32 6.68 6.64 5.36 8 4 C8.99 4.33 9.98 4.66 11 5 C9.68 6.32 8.36 7.64 7 9 C7.28875 9.5775 7.5775 10.155 7.875 10.75 C9.4375 13.875 9.4375 13.875 11 17 C7.20411134 16.45773019 5.52788007 14.79872437 3 12 C3 13.65 3 15.3 3 17 C2.01 17 1.02 17 0 17 C0 11.39 0 5.78 0 0 Z " fill="#DDDDDD" transform="translate(792,1034)"/>
<path d="M0 0 C3.63 0 7.26 0 11 0 C10.67 1.32 10.34 2.64 10 4 C10 4.99 10 5.98 10 7 C10.66 7.66 11.32 8.32 12 9 C12.375 11.4375 12.375 11.4375 12 14 C10.4375 15.875 10.4375 15.875 8 17 C4.25 16.6875 4.25 16.6875 1 16 C0.67 14.68 0.34 13.36 0 12 C0.86625 12.495 0.86625 12.495 1.75 13 C4.19883862 14.27075898 4.19883862 14.27075898 8 14 C8 12.35 8 10.7 8 9 C6.68 8.67 5.36 8.34 4 8 C5.875 4.125 5.875 4.125 7 3 C4.69 2.67 2.38 2.34 0 2 C0 1.34 0 0.68 0 0 Z " fill="#E9E9E9" transform="translate(909,1034)"/>
<path d="M0 0 C0.99 0.33 1.98 0.66 3 1 C4.16796875 3.72265625 4.16796875 3.72265625 5.1875 7.0625 C5.53167969 8.16722656 5.87585938 9.27195312 6.23046875 10.41015625 C6.48441406 11.26480469 6.73835937 12.11945313 7 13 C7.24234375 12.14535156 7.4846875 11.29070312 7.734375 10.41015625 C8.23710938 8.75306641 8.23710938 8.75306641 8.75 7.0625 C9.07484375 5.96035156 9.3996875 4.85820313 9.734375 3.72265625 C10.15203125 2.82417969 10.5696875 1.92570312 11 1 C12.32 0.67 13.64 0.34 15 0 C13.02 5.61 11.04 11.22 9 17 C7.68 17 6.36 17 5 17 C4.16080602 14.73117913 3.32848276 12.46022973 2.5 10.1875 C2.26152344 9.54490234 2.02304687 8.90230469 1.77734375 8.24023438 C0.72931254 5.35066261 0 3.09923939 0 0 Z " fill="#E9E9E9" transform="translate(674,1034)"/>
<path d="M0 0 C4.455 0.99 4.455 0.99 9 2 C9.33 3.65 9.66 5.3 10 7 C14.61507774 8.04214691 14.61507774 8.04214691 19 7 C18.42655063 9.86724686 18.1385485 10.8614515 16 13 C13.875 12.625 13.875 12.625 12 12 C12 11.34 12 10.68 12 10 C11.01 10 10.02 10 9 10 C8.34 11.32 7.68 12.64 7 14 C6.34 13.67 5.68 13.34 5 13 C5.33 12.67 5.66 12.34 6 12 C6.07148199 10.64756083 6.08399454 9.29165633 6.0625 7.9375 C6.041875 6.638125 6.02125 5.33875 6 4 C3.36 4 0.72 4 -2 4 C-1.34 2.68 -0.68 1.36 0 0 Z " fill="#222222" transform="translate(950,1036)"/>
<path d="M0 0 C3.53571429 0.53571429 3.53571429 0.53571429 5 2 C5.16796875 3.99609375 5.16796875 3.99609375 5.1875 6.4375 C5.20167969 7.24058594 5.21585938 8.04367187 5.23046875 8.87109375 C5 11 5 11 3 13 C-0.53571429 12.46428571 -0.53571429 12.46428571 -2 11 C-2.16796875 9.00390625 -2.16796875 9.00390625 -2.1875 6.5625 C-2.20167969 5.75941406 -2.21585938 4.95632813 -2.23046875 4.12890625 C-2 2 -2 2 0 0 Z " fill="#0B0B0B" transform="translate(899,1036)"/>
<path d="M0 0 C0.33 1.32 0.66 2.64 1 4 C0.4225 3.649375 -0.155 3.29875 -0.75 2.9375 C-3.35801776 1.85082593 -4.39417629 2.06934867 -7 3 C-7 4.65 -7 6.3 -7 8 C-4.39417629 8.93065133 -3.35801776 9.14917407 -0.75 8.0625 C-0.1725 7.711875 0.405 7.36125 1 7 C0.67 8.32 0.34 9.64 0 11 C-6.37426409 12.32296047 -6.37426409 12.32296047 -8.9375 11 C-10.58367385 7.90131981 -10.36841966 5.43858351 -10 2 C-7.69981438 -2.32976117 -4.22839932 -0.87759231 0 0 Z " fill="#E7E7E7" transform="translate(820,1039)"/>
<path d="M0 0 C0.33 1.32 0.66 2.64 1 4 C0.4225 3.649375 -0.155 3.29875 -0.75 2.9375 C-3.35801776 1.85082593 -4.39417629 2.06934867 -7 3 C-7 4.65 -7 6.3 -7 8 C-4.39417629 8.93065133 -3.35801776 9.14917407 -0.75 8.0625 C-0.1725 7.711875 0.405 7.36125 1 7 C0.67 8.32 0.34 9.64 0 11 C-6.37426409 12.32296047 -6.37426409 12.32296047 -8.9375 11 C-10.58367385 7.90131981 -10.36841966 5.43858351 -10 2 C-7.69981438 -2.32976117 -4.22839932 -0.87759231 0 0 Z " fill="#E5E5E5" transform="translate(712,1039)"/>
<path d="M0 0 C0.99 0 1.98 0 3 0 C3 0.99 3 1.98 3 3 C3.99 3 4.98 3 6 3 C6 3.66 6 4.32 6 5 C5.01 5 4.02 5 3 5 C3 7.97 3 10.94 3 14 C3.99 14 4.98 14 6 14 C6 14.66 6 15.32 6 16 C4.33388095 16.042721 2.66617115 16.04063832 1 16 C0 15 0 15 -0.09765625 12.71484375 C-0.08025391 11.34005859 -0.08025391 11.34005859 -0.0625 9.9375 C-0.05347656 9.01839844 -0.04445313 8.09929687 -0.03515625 7.15234375 C-0.02355469 6.44207031 -0.01195312 5.73179688 0 5 C-0.66 5 -1.32 5 -2 5 C-2 4.34 -2 3.68 -2 3 C-1.34 3 -0.68 3 0 3 C0 2.01 0 1.02 0 0 Z " fill="#CFCFCF" transform="translate(759,1035)"/>
<path d="M0 0 C0.99 0 1.98 0 3 0 C3 0.99 3 1.98 3 3 C3.99 3 4.98 3 6 3 C6 3.66 6 4.32 6 5 C5.01 5 4.02 5 3 5 C3 7.97 3 10.94 3 14 C3.99 14 4.98 14 6 14 C6 14.66 6 15.32 6 16 C4.33388095 16.042721 2.66617115 16.04063832 1 16 C0 15 0 15 -0.09765625 12.71484375 C-0.08025391 11.34005859 -0.08025391 11.34005859 -0.0625 9.9375 C-0.05347656 9.01839844 -0.04445313 8.09929687 -0.03515625 7.15234375 C-0.02355469 6.44207031 -0.01195312 5.73179688 0 5 C-0.66 5 -1.32 5 -2 5 C-2 4.34 -2 3.68 -2 3 C-1.34 3 -0.68 3 0 3 C0 2.01 0 1.02 0 0 Z " fill="#D5D5D5" transform="translate(716,1035)"/>
<path d="M0 0 C0 5.61 0 11.22 0 17 C-0.99 17 -1.98 17 -3 17 C-3 12.71 -3 8.42 -3 4 C-4.32 4.33 -5.64 4.66 -7 5 C-5.22678182 1.07358831 -4.52021524 0 0 0 Z " fill="#E8E8E8" transform="translate(929,1034)"/>
<path d="M0 0 C1.8125 1.375 1.8125 1.375 3 3 C3 3.66 3 4.32 3 5 C2.01 4.67 1.02 4.34 0 4 C0 3.34 0 2.68 0 2 C-1.65 2.66 -3.3 3.32 -5 4 C-5 5.65 -5 7.3 -5 9 C-2.525 9.99 -2.525 9.99 0 11 C0.33 10.01 0.66 9.02 1 8 C1.66 8 2.32 8 3 8 C1.125 11.875 1.125 11.875 0 13 C-2.73531209 13.28792759 -4.41243666 13.34443368 -6.8125 11.9375 C-8.67036623 8.90624457 -8.37133265 6.46577141 -8 3 C-5.95177941 -0.34183359 -3.7548828 -0.56323242 0 0 Z " fill="#E9E9E9" transform="translate(787,1038)"/>
<path d="M0 0 C1.65 0.33 3.3 0.66 5 1 C5 1.66 5 2.32 5 3 C6.32 2.67 7.64 2.34 9 2 C9 2.66 9 3.32 9 4 C9.66 4 10.32 4 11 4 C10.4140625 10.15234375 10.4140625 10.15234375 10 12 C9.01 12.495 9.01 12.495 8 13 C8 11.02 8 9.04 8 7 C5.03 6.01 2.06 5.02 -1 4 C-0.67 2.68 -0.34 1.36 0 0 Z " fill="#161616" transform="translate(748,1036)"/>
<path d="M0 0 C3.3 0.33 6.6 0.66 10 1 C10.10815225 2.76949095 10.18566083 4.54087487 10.25 6.3125 C10.29640625 7.29863281 10.3428125 8.28476563 10.390625 9.30078125 C10 12 10 12 7.984375 13.85546875 C7.32953125 14.23316406 6.6746875 14.61085938 6 15 C5.34 14.67 4.68 14.34 4 14 C4.66 13.34 5.32 12.68 6 12 C6.16677282 8.41656024 6.16677282 8.41656024 6 5 C2.02245872 4.26665571 2.02245872 4.26665571 -2 4 C-1.34 2.68 -0.68 1.36 0 0 Z " fill="#191919" transform="translate(885,1036)"/>
<path d="M0 0 C0.66 0 1.32 0 2 0 C0.94744358 5.26278209 -0.33743201 10.37487802 -1.9375 15.5 C-2.25589844 16.5209375 -2.57429687 17.541875 -2.90234375 18.59375 C-3.26457031 19.3878125 -3.62679687 20.181875 -4 21 C-4.99 21.33 -5.98 21.66 -7 22 C-5.0827282 14.49068545 -2.75950985 7.24196241 0 0 Z " fill="#D7D7D7" transform="translate(862,1033)"/>
<path d="M0 0 C2.31 0 4.62 0 7 0 C7 0.99 7 1.98 7 3 C6.01 3.33 5.02 3.66 4 4 C3.67 6.97 3.34 9.94 3 13 C2.01 13 1.02 13 0 13 C0 8.71 0 4.42 0 0 Z " fill="#D1D1D1" transform="translate(736,1038)"/>
<path d="M0 0 C3.53571429 0.53571429 3.53571429 0.53571429 5 2 C5.1875 4.4375 5.1875 4.4375 5 7 C4.34 7.66 3.68 8.32 3 9 C-0.53571429 8.46428571 -0.53571429 8.46428571 -2 7 C-2.1875 4.5625 -2.1875 4.5625 -2 2 C-1.34 1.34 -0.68 0.68 0 0 Z " fill="#121212" transform="translate(827,1040)"/>
<path d="M0 0 C3.53571429 0.53571429 3.53571429 0.53571429 5 2 C5.1875 4.4375 5.1875 4.4375 5 7 C4.34 7.66 3.68 8.32 3 9 C-0.53571429 8.46428571 -0.53571429 8.46428571 -2 7 C-2.1875 4.5625 -2.1875 4.5625 -2 2 C-1.34 1.34 -0.68 0.68 0 0 Z " fill="#131313" transform="translate(770,1040)"/>
<path d="M0 0 C3.53571429 0.53571429 3.53571429 0.53571429 5 2 C5.1875 4.4375 5.1875 4.4375 5 7 C4.34 7.66 3.68 8.32 3 9 C-0.53571429 8.46428571 -0.53571429 8.46428571 -2 7 C-2.1875 4.5625 -2.1875 4.5625 -2 2 C-1.34 1.34 -0.68 0.68 0 0 Z " fill="#111111" transform="translate(727,1040)"/>
<path d="M0 0 C2.97 0.495 2.97 0.495 6 1 C6.1875 3.875 6.1875 3.875 6 7 C2.53076119 9.31282587 1.07794425 9.42478586 -3 9 C-4.875 7.6875 -4.875 7.6875 -6 6 C-6 5.01 -6 4.02 -6 3 C-3 4 -3 4 -2 6 C-0.35 5.67 1.3 5.34 3 5 C3.22609337 2.87635519 3.22609337 2.87635519 1.5 1.375 C1.005 0.92125 0.51 0.4675 0 0 Z " fill="#E8E8E8" transform="translate(750,1042)"/>
<path d="M0 0 C2.64 0 5.28 0 8 0 C7.67 0.66 7.34 1.32 7 2 C6.01 2.33 5.02 2.66 4 3 C3.67 6.3 3.34 9.6 3 13 C2.01 13 1.02 13 0 13 C0 8.71 0 4.42 0 0 Z " fill="#D6D6D6" transform="translate(836,1038)"/>
<path d="M0 0 C0.99 0.33 1.98 0.66 3 1 C3 3.31 3 5.62 3 8 C1.329375 8.2165625 1.329375 8.2165625 -0.375 8.4375 C-3.82142047 8.78372035 -3.82142047 8.78372035 -6 10 C-4.6302836 6.00499382 -2.74277578 3.19990508 0 0 Z " fill="#C5C5C5" transform="translate(871,1037)"/>
<path d="M0 0 C2.125 0.375 2.125 0.375 4 1 C4.625 3.375 4.625 3.375 5 6 C4.34 6.66 3.68 7.32 3 8 C0.875 7.625 0.875 7.625 -1 7 C-1.625 4.625 -1.625 4.625 -2 2 C-1.34 1.34 -0.68 0.68 0 0 Z " fill="#0F0F0F" transform="translate(950,1041)"/>
<path d="M0 0 C2.125 0.375 2.125 0.375 4 1 C4.625 3.375 4.625 3.375 5 6 C4.34 6.66 3.68 7.32 3 8 C0.875 7.625 0.875 7.625 -1 7 C-1.625 4.625 -1.625 4.625 -2 2 C-1.34 1.34 -0.68 0.68 0 0 Z " fill="#0E0E0E" transform="translate(885,1041)"/>
<path d="M0 0 C1.0725 0.2475 2.145 0.495 3.25 0.75 C3.58 1.74 3.91 2.73 4.25 3.75 C1.94 3.42 -0.37 3.09 -2.75 2.75 C-3.74 4.235 -3.74 4.235 -4.75 5.75 C-4.09 5.75 -3.43 5.75 -2.75 5.75 C-3.08 6.74 -3.41 7.73 -3.75 8.75 C-6.75 7.75 -6.75 7.75 -7.6875 5.9375 C-7.75 3.75 -7.75 3.75 -6.25 1.4375 C-3.75 -0.25 -3.75 -0.25 0 0 Z " fill="#D4D4D4" transform="translate(952.75,1034.25)"/>
<path d="M0 0 C2 2 2 2 2.0625 5.5 C2.041875 6.655 2.02125 7.81 2 9 C2.33 9.66 2.66 10.32 3 11 C0.03 10.505 0.03 10.505 -3 10 C-3 7.03 -3 4.06 -3 1 C-2.01 0.67 -1.02 0.34 0 0 Z " fill="#121212" transform="translate(722,1039)"/>
<path d="M0 0 C1.67542976 0.28604898 3.34385343 0.61781233 5 1 C5 2.65 5 4.3 5 6 C2.625 6.625 2.625 6.625 0 7 C-0.66 6.34 -1.32 5.68 -2 5 C-1.46428571 1.46428571 -1.46428571 1.46428571 0 0 Z " fill="#181818" transform="translate(963,1036)"/>
<path d="M0 0 C2.625 0.3125 2.625 0.3125 4.4375 2.3125 C4.829375 2.9725 5.22125 3.6325 5.625 4.3125 C3.21954362 5.51522819 1.67503047 5.41321472 -1 5.375 C-2.22589844 5.36146484 -2.22589844 5.36146484 -3.4765625 5.34765625 C-4.41628906 5.33025391 -4.41628906 5.33025391 -5.375 5.3125 C-2.99512693 0.39409565 -2.99512693 0.39409565 0 0 Z " fill="#8F8F8F" transform="translate(694.375,1037.6875)"/>
<path d="M0 0 C0.33 0.99 0.66 1.98 1 3 C-1.31 2.67 -3.62 2.34 -6 2 C-6 3.32 -6 4.64 -6 6 C-6.66 6.66 -7.32 7.32 -8 8 C-8.99 7.01 -9.98 6.02 -11 5 C-8.6102683 -1.65710974 -6.76304013 -1.12717335 0 0 Z " fill="#BFBFBF" transform="translate(891,1035)"/>
<path d="M0 0 C0.33 0 0.66 0 1 0 C1.25 2.3125 1.25 2.3125 1 5 C-0.5625 6.875 -0.5625 6.875 -3 8 C-6.75 7.6875 -6.75 7.6875 -10 7 C-10.33 5.68 -10.66 4.36 -11 3 C-10.13375 3.495 -10.13375 3.495 -9.25 4 C-6.80116138 5.27075898 -6.80116138 5.27075898 -3 5 C-2.690625 4.360625 -2.38125 3.72125 -2.0625 3.0625 C-1 1 -1 1 0 0 Z " fill="#DDDDDD" transform="translate(920,1043)"/>
<path d="M0 0 C1.65 0 3.3 0 5 0 C5 2.97 5 5.94 5 9 C3.35 9 1.7 9 0 9 C0 6.03 0 3.06 0 0 Z " fill="#0E0E0E" transform="translate(762,1040)"/>
<path d="M0 0 C0.99 0 1.98 0 3 0 C3.33 3.3 3.66 6.6 4 10 C3.01 10 2.02 10 1 10 C1 12.31 1 14.62 1 17 C0.67 17 0.34 17 0 17 C0 11.39 0 5.78 0 0 Z " fill="#C9C9C9" transform="translate(792,1034)"/>
<path d="M0 0 C0.33 0 0.66 0 1 0 C0.25 6.75 0.25 6.75 -2 9 C-7.23986486 9.55743243 -7.23986486 9.55743243 -9.875 7.625 C-11 6 -11 6 -11 4 C-10.443125 4.33 -9.88625 4.66 -9.3125 5 C-6.69715478 6.1309601 -4.8193354 6.15662974 -2 6 C-1.855625 5.38125 -1.71125 4.7625 -1.5625 4.125 C-1 2 -1 2 0 0 Z " fill="#D1D1D1" transform="translate(942,1042)"/>
<path d="M0 0 C0.556875 0.33 1.11375 0.66 1.6875 1 C4.3367035 2.14560151 6.1407807 2.22572784 9 2 C9.66 1.67 10.32 1.34 11 1 C10.42655063 3.86724686 10.1385485 4.8614515 8 7 C5.875 6.625 5.875 6.625 4 6 C4 5.34 4 4.68 4 4 C2.68 4.33 1.36 4.66 0 5 C0 3.35 0 1.7 0 0 Z " fill="#151515" transform="translate(958,1042)"/>
<path d="M0 0 C0.99 0.33 1.98 0.66 3 1 C2.34 1.66 1.68 2.32 1 3 C0.83312552 5.58354218 0.83312552 5.58354218 1 8 C2.32 8.66 3.64 9.32 5 10 C5 10.66 5 11.32 5 12 C0.25 11.25 0.25 11.25 -2 9 C-2.25 5.5 -2.25 5.5 -2 2 C-1.34 1.34 -0.68 0.68 0 0 Z " fill="#EFEFEF" transform="translate(825,1039)"/>
<path d="M0 0 C0.66 0 1.32 0 2 0 C2 1.32 2 2.64 2 4 C-0.97 4.66 -3.94 5.32 -7 6 C-7.66 4.68 -8.32 3.36 -9 2 C-6.03 2 -3.06 2 0 2 C0 1.34 0 0.68 0 0 Z " fill="#161616" transform="translate(700,1043)"/>
<path d="M0 0 C0.99 0.33 1.98 0.66 3 1 C2.34 1.66 1.68 2.32 1 3 C0.83312552 5.58354218 0.83312552 5.58354218 1 8 C2.32 8.66 3.64 9.32 5 10 C5 10.66 5 11.32 5 12 C0.25 11.25 0.25 11.25 -2 9 C-2.25 5.5 -2.25 5.5 -2 2 C-1.34 1.34 -0.68 0.68 0 0 Z " fill="#EDEDED" transform="translate(725,1039)"/>
<path d="M0 0 C0.625 1.875 0.625 1.875 1 4 C-1 6 -1 6 -3.9375 6.3125 C-7 6 -7 6 -8.875 4.625 C-10 3 -10 3 -10 1 C-9.01 1 -8.02 1 -7 1 C-6.67 1.66 -6.34 2.32 -6 3 C-3.13275314 2.42655063 -2.1385485 2.1385485 0 0 Z " fill="#D6D6D6" transform="translate(969,1045)"/>
<path d="M0 0 C0.99 0.33 1.98 0.66 3 1 C1.68 4.63 0.36 8.26 -1 12 C-1.99 12 -2.98 12 -4 12 C-3.52494322 10.18641846 -3.04483958 8.37415821 -2.5625 6.5625 C-2.29566406 5.55316406 -2.02882813 4.54382812 -1.75390625 3.50390625 C-1 1 -1 1 0 0 Z " fill="#DCDCDC" transform="translate(686,1034)"/>
<path d="M0 0 C2.31 0.33 4.62 0.66 7 1 C7.33 1.99 7.66 2.98 8 4 C4.7 4 1.4 4 -2 4 C-1.34 2.68 -0.68 1.36 0 0 Z " fill="#0B0B0B" transform="translate(54,1036)"/>
<path d="M0 0 C0.66 0 1.32 0 2 0 C2 2.97 2 5.94 2 9 C1.01 8.01 0.02 7.02 -1 6 C-3.16299211 6.22757731 -3.16299211 6.22757731 -5 7 C-5.33 6.34 -5.66 5.68 -6 5 C-5.195625 4.731875 -4.39125 4.46375 -3.5625 4.1875 C-2.716875 3.795625 -1.87125 3.40375 -1 3 C-0.67 2.01 -0.34 1.02 0 0 Z " fill="#EDEDED" transform="translate(969,1038)"/>
<path d="M0 0 C0.66 0 1.32 0 2 0 C2.2475 0.94875 2.495 1.8975 2.75 2.875 C3.6857077 6.08693191 3.6857077 6.08693191 6.125 7.375 C6.74375 7.58125 7.3625 7.7875 8 8 C8 8.33 8 8.66 8 9 C5.25913944 9.22223194 3.56036279 9.34781139 1.1875 7.875 C-0.49106106 5.22464043 -0.20450238 3.06753576 0 0 Z " fill="#EEEEEE" transform="translate(766,1042)"/>
<path d="M0 0 C0.33 0 0.66 0 1 0 C1.33 2.64 1.66 5.28 2 8 C0.3125 9.5625 0.3125 9.5625 -2 11 C-4.75 10.6875 -4.75 10.6875 -7 10 C-7 9.67 -7 9.34 -7 9 C-5.02 8.34 -3.04 7.68 -1 7 C-0.67 4.69 -0.34 2.38 0 0 Z " fill="#E9E9E9" transform="translate(904,1040)"/>
<path d="M0 0 C2.9375 0.375 2.9375 0.375 6 1 C7.35439668 3.70879335 7.06501451 6.00933268 7 9 C5 8 5 8 4.0625 5.5 C3.711875 4.675 3.36125 3.85 3 3 C2.01 2.67 1.02 2.34 0 2 C0 1.34 0 0.68 0 0 Z " fill="#EDEDED" transform="translate(950,1039)"/>
<path d="M0 0 C2 1 2 1 3 2 C3.07271741 4.35313555 3.08370868 6.70833668 3.0625 9.0625 C3.05347656 10.35285156 3.04445313 11.64320312 3.03515625 12.97265625 C3.02355469 13.97167969 3.01195312 14.97070312 3 16 C2.67 16 2.34 16 2 16 C2 11.71 2 7.42 2 3 C0.68 3.33 -0.64 3.66 -2 4 C-1.34 2.68 -0.68 1.36 0 0 Z " fill="#A6A6A6" transform="translate(924,1035)"/>
<path d="M0 0 C2.64 0 5.28 0 8 0 C6.02 2.97 6.02 2.97 4 6 C3.67 5.34 3.34 4.68 3 4 C1.35 4 -0.3 4 -2 4 C-2 3.67 -2 3.34 -2 3 C-0.35 2.67 1.3 2.34 3 2 C2.01 1.34 1.02 0.68 0 0 Z " fill="#272727" transform="translate(909,1036)"/>
<path d="M0 0 C3 1 3 1 4 3 C6.02463255 3.65213292 6.02463255 3.65213292 8 4 C8 4.66 8 5.32 8 6 C3.50347222 6.36458333 3.50347222 6.36458333 1.1875 4.6875 C0 3 0 3 0 0 Z " fill="#E2E2E2" transform="translate(744,1045)"/>
<path d="M0 0 C0.99 0.33 1.98 0.66 3 1 C1.19873295 3.27528469 0.3633843 3.94682181 -2.5625 4.375 C-3.7690625 4.189375 -3.7690625 4.189375 -5 4 C-5.66 3.01 -6.32 2.02 -7 1 C-5.5459375 1.0309375 -5.5459375 1.0309375 -4.0625 1.0625 C-1.12534105 1.35618499 -1.12534105 1.35618499 0 0 Z " fill="#E4E4E4" transform="translate(697,1047)"/>
<path d="M0 0 C3 1 3 1 4 3 C6.01669827 4.13350534 6.01669827 4.13350534 8 5 C7.67 5.66 7.34 6.32 7 7 C5.02 6.34 3.04 5.68 1 5 C0.67 3.35 0.34 1.7 0 0 Z " fill="#C2C2C2" transform="translate(744,1037)"/>
<path d="M0 0 C0.33 0 0.66 0 1 0 C0.75 3.375 0.75 3.375 0 7 C-2.0625 8.4375 -2.0625 8.4375 -4 9 C-3.29975694 5.73219907 -2.42301753 2.42301753 0 0 Z " fill="#C5C5C5" transform="translate(834,1042)"/>
<path d="M0 0 C0.33 0 0.66 0 1 0 C0.75 3.375 0.75 3.375 0 7 C-2.0625 8.4375 -2.0625 8.4375 -4 9 C-3.29975694 5.73219907 -2.42301753 2.42301753 0 0 Z " fill="#C5C5C5" transform="translate(734,1042)"/>
<path d="M0 0 C0.99 0.33 1.98 0.66 3 1 C0.88229834 3.32947183 -1.03335588 4.88750845 -4 6 C-4.99 5.67 -5.98 5.34 -7 5 C-5.90554162 4.13342884 -4.79902219 3.28207276 -3.6875 2.4375 C-3.07261719 1.96183594 -2.45773437 1.48617187 -1.82421875 0.99609375 C-1.22222656 0.66738281 -0.62023437 0.33867188 0 0 Z " fill="#F0E7E4" transform="translate(641,618)"/>
<path d="M0 0 C-0.33 2.31 -0.66 4.62 -1 7 C-2.32 7.33 -3.64 7.66 -5 8 C-4.40138258 5.64828869 -3.73075648 3.3140622 -3 1 C-1 0 -1 0 0 0 Z " fill="#C8C8C8" transform="translate(778,1042)"/>
<path d="M0 0 C2.31 0.33 4.62 0.66 7 1 C7.33 2.32 7.66 3.64 8 5 C5.33333333 3.66666667 2.66666667 2.33333333 0 1 C0 0.67 0 0.34 0 0 Z " fill="#D5D5D5" transform="translate(813,1038)"/>
<path d="M0 0 C2.96175123 0.61277612 4.38058783 1.25372522 7 3 C0.25 4 0.25 4 -2 4 C-1.34 2.68 -0.68 1.36 0 0 Z " fill="#181818" transform="translate(950,1036)"/>
<path d="M0 0 C0.66 0.66 1.32 1.32 2 2 C1.875 4.5 1.875 4.5 1 7 C-0.98 7.99 -0.98 7.99 -3 9 C-2.01 6.03 -1.02 3.06 0 0 Z " fill="#F4D5E7" transform="translate(764,468)"/>
<path d="M0 0 C-2.35968744 2.09749995 -3.54616994 2.96905704 -6.75 3.1875 C-7.86375 3.0946875 -7.86375 3.0946875 -9 3 C-9.33 2.34 -9.66 1.68 -10 1 C-6.78548731 -0.60725635 -3.56387464 -0.05748185 0 0 Z " fill="#F42082" transform="translate(370,258)"/>
<path d="M0 0 C2.1519437 3.22791555 2.20086443 4.28400809 2 8 C1.01 7.67 0.02 7.34 -1 7 C-1.04254356 5.00045254 -1.04080783 2.99958364 -1 1 C-0.67 0.67 -0.34 0.34 0 0 Z " fill="#F4F4F4" transform="translate(881,1039)"/>
<path d="M0 0 C2.31 0.33 4.62 0.66 7 1 C7.33 1.99 7.66 2.98 8 4 C5.33333333 3.33333333 2.66666667 2.66666667 0 2 C0 1.34 0 0.68 0 0 Z " fill="#DCDCDC" transform="translate(884,1034)"/>
<path d="M0 0 C1.98 0 3.96 0 6 0 C5.34 2.64 4.68 5.28 4 8 C1.53721199 5.53721199 1.00228745 3.29323018 0 0 Z " fill="#F81537" transform="translate(420,624)"/>
<path d="M0 0 C0.556875 0.28875 1.11375 0.5775 1.6875 0.875 C4.08494645 2.0413253 6.51596939 3.0339881 9 4 C9 4.33 9 4.66 9 5 C3.5 5.36666667 3.5 5.36666667 1.125 3.625 C0 2 0 2 0 0 Z " fill="#E1E1E1" transform="translate(931,1046)"/>
<path d="M0 0 C0.33 0 0.66 0 1 0 C1.33 1.98 1.66 3.96 2 6 C2.99 6.33 3.98 6.66 5 7 C5 7.66 5 8.32 5 9 C3.35 9 1.7 9 0 9 C0 6.03 0 3.06 0 0 Z " fill="#E7E7E7" transform="translate(760,1042)"/>
<path d="M0 0 C0.33 0 0.66 0 1 0 C1.22786458 2.01822917 1.45572917 4.03645833 1.68359375 6.0546875 C1.91292961 8.07404316 1.91292961 8.07404316 3 10 C2.01 10.33 1.02 10.66 0 11 C-1.37432457 7.18243176 -0.67975039 3.92744671 0 0 Z " fill="#BEBEBE" transform="translate(896,1039)"/>
<path d="M0 0 C0.99 0.33 1.98 0.66 3 1 C3 3.31 3 5.62 3 8 C2.34 8 1.68 8 1 8 C0.67 5.36 0.34 2.72 0 0 Z " fill="#D5D5D5" transform="translate(904,1038)"/>
<path d="M0 0 C0.33 0 0.66 0 1 0 C1 1.98 1 3.96 1 6 C-0.65 6 -2.3 6 -4 6 C-2.69593116 3.98079663 -1.36176581 1.98075027 0 0 Z " fill="#1F1F1F" transform="translate(872,1039)"/>
<path d="M0 0 C0.66 0 1.32 0 2 0 C2 0.66 2 1.32 2 2 C3.32 2.33 4.64 2.66 6 3 C5.67 3.99 5.34 4.98 5 6 C4.34 5.34 3.68 4.68 3 4 C0.93125966 3.3574765 0.93125966 3.3574765 -1 3 C-0.67 2.01 -0.34 1.02 0 0 Z " fill="#F7F7F7" transform="translate(914,1039)"/>
<path d="M0 0 C2.97 0.495 2.97 0.495 6 1 C6 1.99 6 2.98 6 4 C3.69 3.34 1.38 2.68 -1 2 C-0.67 1.34 -0.34 0.68 0 0 Z " fill="#E0E0E0" transform="translate(885,1039)"/>
<path d="M0 0 C-2.6855594 2.6855594 -5.37621328 3.06049974 -9 4 C-9 3.34 -9 2.68 -9 2 C-5.5647952 -0.29013653 -4.014669 -0.17842973 0 0 Z " fill="#F31089" transform="translate(586,312)"/>
</svg>
